{"accessors":[{"name":"Mseh_0_positions","bufferView":0,"byteOffset":0,"componentType":5126,"count":3162,"type":"VEC3","min":[-0.124999575316906,-0.023309791460633,-0.149290069937706],"max":[0.127254337072372,0.105029284954071,0.267594873905182]},{"name":"Mseh_1_normals","bufferView":1,"byteOffset":0,"componentType":5126,"count":3162,"type":"VEC3","min":[-1.000000000000000,-1.000000000000000,-1.000000000000000],"max":[1.000000000000000,1.000000000000000,1.000000000000000]},{"name":"Mseh_2_texcoords","bufferView":2,"byteOffset":0,"componentType":5126,"count":3162,"type":"VEC2","min":[-0.001390897668898,0.000000000000000],"max":[1.000000000000000,1.000000000000000]},{"name":"Mseh_3_indices","bufferView":3,"byteOffset":0,"componentType":5125,"count":9501,"type":"SCALAR","min":[0],"max":[3161]}],"asset":{"generator":"EarthView-CesiumModelTool","version":"2.0"},"bufferViews":[{"name":"bufferView__positions","buffer":0,"byteLength":37944,"byteOffset":0,"byteStride":12,"target":34962},{"name":"bufferView__normals","buffer":0,"byteLength":37944,"byteOffset":37944,"byteStride":12,"target":34962},{"name":"bufferView__texcoords","buffer":0,"byteLength":25296,"byteOffset":75888,"byteStride":8,"target":34962},{"name":"bufferView__indices","buffer":0,"byteLength":38004,"byteOffset":101184,"target":34963}],"materials":[{"name":"4d63bdc2-a6f6-11eb-4051-0bd3735d503cj10001","pbrMetallicRoughness":{"baseColorTexture":{"index":0},"baseColorFactor":[1.000000,1.000000,1.000000,1.000000],"metallicFactor":0,"roughnessFactor":1},"emissiveFactor":[0.000000,0.000000,0.000000],"alphaMode":"OPAQUE","doubleSided":true}],"meshes":[{"name":"Mseh_3","primitives":[{"attributes":{"POSITION":0,"NORMAL":1,"TEXCOORD_0":2},"indices":3,"material":0,"mode":4}]}],"nodes":[{"name":"J10C","children":[1],"scale":[1,1,1]},{"name":"J10C_f0","children":[2],"translation":[0.044359408318996,-1.761597871780396,2.333636760711670]},{"name":"mesh_2","mesh":0,"scale":[39.370079215952522,39.370079215952522,39.370079215952522],"translation":[-0.044359408318996,1.761597871780396,-2.333636760711670]}],"samplers":[{"magFilter":9729,"minFilter":9729,"wrapS":10497,"wrapT":10497}],"scene":0,"buffers":[{"name":"J10C.mesh","byteLength":139188,"uri":"data:application/gltf-buffer;base64,"}],"scenes":[{"nodes":[0]}],"textures":[{"name":"4d63bdc2-a6f6-11eb-4051-0bd3735d503cj10001","sampler":0,"source":0}],"images":[{"name":"J10C_Diffuse.jpg","uri":"data:image/ktx;base64,"}]}