{
    "accessors": {
        "accessor_100": {
            "bufferView": "bufferView_103",
            "byteOffset": 2392,
            "byteStride": 2,
            "componentType": 5120,
            "count": 50,
            "max": [
                127,
                0
            ],
            "min": [
                127,
                0
            ],
            "type": "VEC2"
        },
        "accessor_16": {
            "bufferView": "bufferView_102",
            "byteOffset": 0,
            "byteStride": 2,
            "componentType": 5123,
            "count": 72,
            "max": [
                13
            ],
            "min": [
                0
            ],
            "type": "SCALAR"
        },
        "accessor_18": {
            "bufferView": "bufferView_103",
            "byteOffset": 0,
            "byteStride": 12,
            "componentType": 5126,
            "count": 26,
            "max": [
                0,
                5.099999904632568,
                5.099999904632568
            ],
            "min": [
                0,
                -5.099999904632568,
                -5.099999904632568
            ],
            "type": "VEC3"
        },
        "accessor_20": {
            "bufferView": "bufferView_103",
            "byteOffset": 312,
            "byteStride": 2,
            "componentType": 5120,
            "count": 26,
            "max": [
                127,
                0
            ],
            "min": [
                127,
                0
            ],
            "type": "VEC2"
        },
        "accessor_36": {
            "bufferView": "bufferView_102",
            "byteOffset": 144,
            "byteStride": 2,
            "componentType": 5123,
            "count": 84,
            "max": [
                15
            ],
            "min": [
                0
            ],
            "type": "SCALAR"
        },
        "accessor_38": {
            "bufferView": "bufferView_103",
            "byteOffset": 364,
            "byteStride": 12,
            "componentType": 5126,
            "count": 30,
            "max": [
                0,
                10.100000381469727,
                9.846879959106445
            ],
            "min": [
                0,
                -10.100000381469727,
                -9.847079277038574
            ],
            "type": "VEC3"
        },
        "accessor_40": {
            "bufferView": "bufferView_103",
            "byteOffset": 724,
            "byteStride": 2,
            "componentType": 5120,
            "count": 30,
            "max": [
                127,
                0
            ],
            "min": [
                127,
                0
            ],
            "type": "VEC2"
        },
        "accessor_56": {
            "bufferView": "bufferView_102",
            "byteOffset": 312,
            "byteStride": 2,
            "componentType": 5123,
            "count": 96,
            "max": [
                17
            ],
            "min": [
                0
            ],
            "type": "SCALAR"
        },
        "accessor_58": {
            "bufferView": "bufferView_103",
            "byteOffset": 784,
            "byteStride": 12,
            "componentType": 5126,
            "count": 34,
            "max": [
                0,
                15.100000381469727,
                15.100000381469727
            ],
            "min": [
                0,
                -15.100000381469727,
                -15.100000381469727
            ],
            "type": "VEC3"
        },
        "accessor_60": {
            "bufferView": "bufferView_103",
            "byteOffset": 1192,
            "byteStride": 2,
            "componentType": 5120,
            "count": 34,
            "max": [
                127,
                0
            ],
            "min": [
                127,
                0
            ],
            "type": "VEC2"
        },
        "accessor_76": {
            "bufferView": "bufferView_102",
            "byteOffset": 504,
            "byteStride": 2,
            "componentType": 5123,
            "count": 108,
            "max": [
                19
            ],
            "min": [
                0
            ],
            "type": "SCALAR"
        },
        "accessor_78": {
            "bufferView": "bufferView_103",
            "byteOffset": 1260,
            "byteStride": 12,
            "componentType": 5126,
            "count": 38,
            "max": [
                0,
                20.100000381469727,
                19.7947998046875
            ],
            "min": [
                0,
                -20.100000381469727,
                -19.79509925842285
            ],
            "type": "VEC3"
        },
        "accessor_80": {
            "bufferView": "bufferView_103",
            "byteOffset": 1716,
            "byteStride": 2,
            "componentType": 5120,
            "count": 38,
            "max": [
                127,
                0
            ],
            "min": [
                127,
                0
            ],
            "type": "VEC2"
        },
        "accessor_96": {
            "bufferView": "bufferView_102",
            "byteOffset": 720,
            "byteStride": 2,
            "componentType": 5123,
            "count": 144,
            "max": [
                25
            ],
            "min": [
                0
            ],
            "type": "SCALAR"
        },
        "accessor_98": {
            "bufferView": "bufferView_103",
            "byteOffset": 1792,
            "byteStride": 12,
            "componentType": 5126,
            "count": 50,
            "max": [
                0,
                25.100000381469727,
                25.100000381469727
            ],
            "min": [
                0,
                -25.100000381469727,
                -25.100000381469727
            ],
            "type": "VEC3"
        }
    },
    "animations": {},
    "asset": {
        "generator": "collada2gltf@5615a4b07622d550a8e9bf110997b084cbbb8960",
        "premultipliedAlpha": true,
        "profile": {
            "api": "WebGL",
            "version": "1.0.2"
        },
        "version": "1.0.1"
    },
    "bufferViews": {
        "bufferView_102": {
            "buffer": "target",
            "byteLength": 1008,
            "byteOffset": 0,
            "target": 34963
        },
        "bufferView_103": {
            "buffer": "target",
            "byteLength": 2492,
            "byteOffset": 1008,
            "target": 34962
        }
    },
    "buffers": {
        "target": {
            "byteLength": 3500,
            "type": "arraybuffer",
            "uri": "data:application/octet-stream;base64,"
        }
    },
    "materials": {
        "Bullseye-Revolve-effect": {
            "name": "Bullseye-Revolve-material",
            "technique": "technique0",
            "values": {
                "ambient": [
                    1,
                    1,
                    0,
                    1
                ],
                "diffuse": [
                    1,
                    1,
                    0,
                    1
                ],
                "emission": [
                    0,
                    0,
                    0,
                    1
                ],
                "shininess": 0,
                "specular": [
                    0,
                    0,
                    0,
                    1
                ]
            }
        },
        "Bullseye-Revolve-effect-2": {
            "name": "Bullseye-Revolve-material-2",
            "technique": "technique0",
            "values": {
                "ambient": [
                    1,
                    0,
                    0,
                    1
                ],
                "diffuse": [
                    1,
                    0,
                    0,
                    1
                ],
                "emission": [
                    0,
                    0,
                    0,
                    1
                ],
                "shininess": 0,
                "specular": [
                    0,
                    0,
                    0,
                    1
                ]
            }
        },
        "Bullseye-Revolve-effect-3": {
            "name": "Bullseye-Revolve-material-3",
            "technique": "technique0",
            "values": {
                "ambient": [
                    0,
                    0,
                    1,
                    1
                ],
                "diffuse": [
                    0,
                    0,
                    1,
                    1
                ],
                "emission": [
                    0,
                    0,
                    0,
                    1
                ],
                "shininess": 0,
                "specular": [
                    0,
                    0,
                    0,
                    1
                ]
            }
        },
        "Bullseye-Revolve-effect-4": {
            "name": "Bullseye-Revolve-material-4",
            "technique": "technique0",
            "values": {
                "ambient": [
                    0,
                    0,
                    0,
                    1
                ],
                "diffuse": [
                    0,
                    0,
                    0,
                    1
                ],
                "emission": [
                    0,
                    0,
                    0,
                    1
                ],
                "shininess": 0,
                "specular": [
                    0,
                    0,
                    0,
                    1
                ]
            }
        },
        "Bullseye-Revolve-effect-5": {
            "name": "Bullseye-Revolve-material-5",
            "technique": "technique0",
            "values": {
                "ambient": [
                    1,
                    1,
                    1,
                    1
                ],
                "diffuse": [
                    1,
                    1,
                    1,
                    1
                ],
                "emission": [
                    0,
                    0,
                    0,
                    1
                ],
                "shininess": 0,
                "specular": [
                    0,
                    0,
                    0,
                    1
                ]
            }
        }
    },
    "meshes": {
        "Bullseye-Revolve-geometry": {
            "name": "Bullseye-Revolve-geometry",
            "primitives": [
                {
                    "attributes": {
                        "NORMAL": "accessor_20",
                        "POSITION": "accessor_18"
                    },
                    "indices": "accessor_16",
                    "material": "Bullseye-Revolve-effect",
                    "mode": 4
                }
            ]
        },
        "Bullseye-Revolve-geometry-2": {
            "name": "Bullseye-Revolve-geometry-2",
            "primitives": [
                {
                    "attributes": {
                        "NORMAL": "accessor_40",
                        "POSITION": "accessor_38"
                    },
                    "indices": "accessor_36",
                    "material": "Bullseye-Revolve-effect-2",
                    "mode": 4
                }
            ]
        },
        "Bullseye-Revolve-geometry-3": {
            "name": "Bullseye-Revolve-geometry-3",
            "primitives": [
                {
                    "attributes": {
                        "NORMAL": "accessor_60",
                        "POSITION": "accessor_58"
                    },
                    "indices": "accessor_56",
                    "material": "Bullseye-Revolve-effect-3",
                    "mode": 4
                }
            ]
        },
        "Bullseye-Revolve-geometry-4": {
            "name": "Bullseye-Revolve-geometry-4",
            "primitives": [
                {
                    "attributes": {
                        "NORMAL": "accessor_80",
                        "POSITION": "accessor_78"
                    },
                    "indices": "accessor_76",
                    "material": "Bullseye-Revolve-effect-4",
                    "mode": 4
                }
            ]
        },
        "Bullseye-Revolve-geometry-5": {
            "name": "Bullseye-Revolve-geometry-5",
            "primitives": [
                {
                    "attributes": {
                        "NORMAL": "accessor_100",
                        "POSITION": "accessor_98"
                    },
                    "indices": "accessor_96",
                    "material": "Bullseye-Revolve-effect-5",
                    "mode": 4
                }
            ]
        }
    },
    "nodes": {
        "node_0": {
            "children": [],
            "matrix": [
                -0.000000043711398944878965,
                0,
                -1,
                0,
                0,
                1,
                0,
                0,
                1,
                0,
                -0.000000043711398944878965,
                0,
                0,
                0,
                0,
                1
            ],
            "meshes": [
                "Bullseye-Revolve-geometry"
            ],
            "name": ""
        },
        "node_1": {
            "children": [],
            "matrix": [
                -0.000000043711398944878965,
                0,
                -1,
                0,
                0,
                1,
                0,
                0,
                1,
                0,
                -0.000000043711398944878965,
                0,
                0,
                0,
                0,
                1
            ],
            "meshes": [
                "Bullseye-Revolve-geometry-2"
            ],
            "name": ""
        },
        "node_2": {
            "children": [],
            "matrix": [
                -0.000000043711398944878965,
                0,
                -1,
                0,
                0,
                1,
                0,
                0,
                1,
                0,
                -0.000000043711398944878965,
                0,
                0,
                0,
                0,
                1
            ],
            "meshes": [
                "Bullseye-Revolve-geometry-3"
            ],
            "name": ""
        },
        "node_3": {
            "children": [],
            "matrix": [
                -0.000000043711398944878965,
                0,
                -1,
                0,
                0,
                1,
                0,
                0,
                1,
                0,
                -0.000000043711398944878965,
                0,
                0,
                0,
                0,
                1
            ],
            "meshes": [
                "Bullseye-Revolve-geometry-4"
            ],
            "name": ""
        },
        "node_4": {
            "children": [],
            "matrix": [
                -0.000000043711398944878965,
                0,
                -1,
                0,
                0,
                1,
                0,
                0,
                1,
                0,
                -0.000000043711398944878965,
                0,
                0,
                0,
                0,
                1
            ],
            "meshes": [
                "Bullseye-Revolve-geometry-5"
            ],
            "name": ""
        },
        "node_5": {
            "children": [
                "node_0",
                "node_1",
                "node_2",
                "node_3",
                "node_4"
            ],
            "matrix": [
                1,
                0,
                0,
                0,
                0,
                0,
                -1,
                0,
                0,
                1,
                0,
                0,
                0,
                0,
                0,
                1
            ],
            "name": "Y_UP_Transform"
        }
    },
    "programs": {
        "program_0": {
            "attributes": [
                "a_normal",
                "a_position"
            ],
            "fragmentShader": "target0FS",
            "vertexShader": "target0VS"
        }
    },
    "scene": "defaultScene",
    "scenes": {
        "defaultScene": {
            "nodes": [
                "node_5"
            ]
        }
    },
    "shaders": {
        "target0FS": {
            "type": 35632,
            "uri": "data:text/plain;base64,"
        },
        "target0VS": {
            "type": 35633,
            "uri": "data:text/plain;base64,"
        }
    },
    "skins": {},
    "techniques": {
        "technique0": {
            "attributes": {
                "a_normal": "normal",
                "a_position": "position"
            },
            "parameters": {
                "ambient": {
                    "type": 35666
                },
                "diffuse": {
                    "semantic": "_3DTILESDIFFUSE",
                    "type": 35666
                },
                "emission": {
                    "type": 35666
                },
                "modelViewMatrix": {
                    "semantic": "MODELVIEW",
                    "type": 35676
                },
                "normal": {
                    "semantic": "NORMAL",
                    "type": 35665
                },
                "normalMatrix": {
                    "semantic": "MODELVIEWINVERSETRANSPOSE",
                    "type": 35675
                },
                "position": {
                    "semantic": "POSITION",
                    "type": 35665
                },
                "projectionMatrix": {
                    "semantic": "PROJECTION",
                    "type": 35676
                },
                "shininess": {
                    "type": 5126
                },
                "specular": {
                    "type": 35666
                }
            },
            "program": "program_0",
            "states": {
                "enable": [
                    2929
                ]
            },
            "uniforms": {
                "u_ambient": "ambient",
                "u_diffuse": "diffuse",
                "u_emission": "emission",
                "u_modelViewMatrix": "modelViewMatrix",
                "u_normalMatrix": "normalMatrix",
                "u_projectionMatrix": "projectionMatrix",
                "u_shininess": "shininess",
                "u_specular": "specular"
            }
        }
    }
}