{"accessors":[{"name":"Mseh_0_positions","bufferView":0,"byteOffset":0,"componentType":5126,"count":66,"type":"VEC3","min":[-0.985257804393768,0.473502635955811,-0.970288574695587],"max":[0.985258042812347,0.530736207962036,0.970290958881378]},{"name":"Mseh_1_texcoords","bufferView":1,"byteOffset":0,"componentType":5126,"count":66,"type":"VEC2","min":[0.000000000000000,0.000000000000000],"max":[1.000000000000000,1.000000000000000]},{"name":"Mseh_2_indices","bufferView":2,"byteOffset":0,"componentType":5125,"count":66,"type":"SCALAR","min":[0],"max":[65]},{"name":"Mseh_3_positions","bufferView":0,"byteOffset":792,"componentType":5126,"count":876,"type":"VEC3","min":[-0.595946490764618,-2.581978321075439,-0.820787310600281],"max":[0.595946729183197,-0.081137202680111,1.075201511383057]},{"name":"Mseh_4_texcoords","bufferView":1,"byteOffset":528,"componentType":5126,"count":876,"type":"VEC2","min":[0.000000000000000,0.000000000000000],"max":[1.000000000000000,1.000000000000000]},{"name":"Mseh_5_indices","bufferView":2,"byteOffset":264,"componentType":5125,"count":876,"type":"SCALAR","min":[0],"max":[875]},{"name":"Mseh_6_positions","bufferView":0,"byteOffset":11304,"componentType":5126,"count":348,"type":"VEC3","min":[-1.894798278808594,0.473502635955811,-1.894797325134277],"max":[1.894798278808594,3.154764175415039,1.894799351692200]},{"name":"Mseh_7_texcoords","bufferView":1,"byteOffset":7536,"componentType":5126,"count":348,"type":"VEC2","min":[0.000499000016134,0.000499010086060],"max":[0.999500989913940,0.999500989913940]},{"name":"Mseh_8_indices","bufferView":2,"byteOffset":3768,"componentType":5125,"count":348,"type":"SCALAR","min":[0],"max":[347]},{"name":"Mseh_9_positions","bufferView":0,"byteOffset":15480,"componentType":5126,"count":330,"type":"VEC3","min":[-0.985257804393768,-0.185938462615013,-0.970288574695587],"max":[0.985258042812347,2.393003463745117,0.970290958881378]},{"name":"Mseh_10_texcoords","bufferView":1,"byteOffset":10320,"componentType":5126,"count":330,"type":"VEC2","min":[0.000000000000000,0.000000000000000],"max":[1.027778029441833,1.000000000000000]},{"name":"Mseh_11_indices","bufferView":2,"byteOffset":5160,"componentType":5125,"count":330,"type":"SCALAR","min":[0],"max":[329]},{"name":"Mseh_12_positions","bufferView":0,"byteOffset":19440,"componentType":5126,"count":1320,"type":"VEC3","min":[-0.417850941419601,-2.581978321075439,-0.340609461069107],"max":[0.586610078811646,-0.238954484462738,1.075201511383057]},{"name":"Mseh_13_texcoords","bufferView":1,"byteOffset":12960,"componentType":5126,"count":1320,"type":"VEC2","min":[0.007596000097692,0.000000000000000],"max":[0.992403984069824,1.000000000000000]},{"name":"Mseh_14_indices","bufferView":2,"byteOffset":6480,"componentType":5125,"count":1320,"type":"SCALAR","min":[0],"max":[1319]},{"name":"Mseh_15_positions","bufferView":0,"byteOffset":35280,"componentType":5126,"count":300,"type":"VEC3","min":[-1.110906958580017,-0.080405004322529,0.339655011892319],"max":[1.094725728034973,-0.051129993051291,0.672392845153809]},{"name":"Mseh_16_texcoords","bufferView":1,"byteOffset":23520,"componentType":5126,"count":300,"type":"VEC2","min":[-0.083333000540733,0.000000000000000],"max":[1.000000000000000,1.000000000000000]},{"name":"Mseh_17_indices","bufferView":2,"byteOffset":11760,"componentType":5125,"count":300,"type":"SCALAR","min":[0],"max":[299]},{"name":"Mseh_18_positions","bufferView":0,"byteOffset":38880,"componentType":5126,"count":504,"type":"VEC3","min":[-1.894798278808594,2.202374458312988,-1.894797325134277],"max":[1.894798278808594,3.154764175415039,1.894799351692200]},{"name":"Mseh_19_texcoords","bufferView":1,"byteOffset":25920,"componentType":5126,"count":504,"type":"VEC2","min":[0.000000000000000,0.000000000000000],"max":[1.000000000000000,1.000000000000000]},{"name":"Mseh_20_indices","bufferView":2,"byteOffset":12960,"componentType":5125,"count":504,"type":"SCALAR","min":[0],"max":[503]}],"asset":{"generator":"EarthView-CesiumModelTool","version":"2.0"},"bufferViews":[{"name":"bufferView__positions","buffer":0,"byteLength":44928,"byteOffset":0,"byteStride":12,"target":34962},{"name":"bufferView__texcoords","buffer":0,"byteLength":29952,"byteOffset":44928,"byteStride":8,"target":34962},{"name":"bufferView__indices","buffer":0,"byteLength":14976,"byteOffset":74880,"target":34963}],"materials":[{"name":"dspŒ¿–«_Material_6ee27d80-6aa3-11e7-43a6-330378aa646f","pbrMetallicRoughness":{"baseColorFactor":[0.588000,0.588000,0.588000,1.000000],"metallicFactor":0,"roughnessFactor":1},"emissiveFactor":[0.000000,0.000000,0.000000],"alphaMode":"OPAQUE","doubleSided":true},{"name":"dspŒ¿–«_Material_6ee2a490-6aa3-11e7-43a6-330378aa646f","pbrMetallicRoughness":{"baseColorFactor":[0.835294,0.835294,0.835294,1.000000],"metallicFactor":0,"roughnessFactor":1},"emissiveFactor":[0.000000,0.000000,0.000000],"alphaMode":"OPAQUE","doubleSided":true},{"name":"dspŒ¿–«_Material_6ee2a491-6aa3-11e7-43a6-330378aa646f","pbrMetallicRoughness":{"baseColorTexture":{"index":0},"baseColorFactor":[1.000000,1.000000,1.000000,1.000000],"metallicFactor":0,"roughnessFactor":1},"emissiveFactor":[0.000000,0.000000,0.000000],"alphaMode":"BLEND","doubleSided":true},{"name":"dspŒ¿–«_Material_6ee4a060-6aa3-11e7-43a6-330378aa646f","pbrMetallicRoughness":{"baseColorFactor":[0.992157,0.839216,0.000000,1.000000],"metallicFactor":0,"roughnessFactor":1},"emissiveFactor":[0.000000,0.000000,0.000000],"alphaMode":"OPAQUE","doubleSided":true},{"name":"dspŒ¿–«_Material_6ee4a061-6aa3-11e7-43a6-330378aa646f","pbrMetallicRoughness":{"baseColorFactor":[0.164706,0.164706,0.164706,1.000000],"metallicFactor":0,"roughnessFactor":1},"emissiveFactor":[0.000000,0.000000,0.000000],"alphaMode":"OPAQUE","doubleSided":true},{"name":"dspŒ¿–«_Material_6ee4a062-6aa3-11e7-43a6-330378aa646f","pbrMetallicRoughness":{"baseColorFactor":[0.972549,0.972549,0.972549,1.000000],"metallicFactor":0,"roughnessFactor":1},"emissiveFactor":[0.000000,0.000000,0.000000],"alphaMode":"OPAQUE","doubleSided":true},{"name":"dspŒ¿–«_Material_6ee4c770-6aa3-11e7-43a6-330378aa646f","pbrMetallicRoughness":{"baseColorFactor":[0.117647,0.000000,0.682353,1.000000],"metallicFactor":0,"roughnessFactor":1},"emissiveFactor":[0.000000,0.000000,0.000000],"alphaMode":"OPAQUE","doubleSided":true}],"meshes":[{"name":"Mseh_2","primitives":[{"attributes":{"POSITION":0,"TEXCOORD_0":1},"indices":2,"material":0,"mode":4}]},{"name":"Mseh_5","primitives":[{"attributes":{"POSITION":3,"TEXCOORD_0":4},"indices":5,"material":1,"mode":4}]},{"name":"Mseh_8","primitives":[{"attributes":{"POSITION":6,"TEXCOORD_0":7},"indices":8,"material":2,"mode":4}]},{"name":"Mseh_11","primitives":[{"attributes":{"POSITION":9,"TEXCOORD_0":10},"indices":11,"material":3,"mode":4}]},{"name":"Mseh_14","primitives":[{"attributes":{"POSITION":12,"TEXCOORD_0":13},"indices":14,"material":4,"mode":4}]},{"name":"Mseh_17","primitives":[{"attributes":{"POSITION":15,"TEXCOORD_0":16},"indices":17,"material":5,"mode":4}]},{"name":"Mseh_20","primitives":[{"attributes":{"POSITION":18,"TEXCOORD_0":19},"indices":20,"material":6,"mode":4}]}],"nodes":[{"name":"Mseh_0","mesh":0},{"name":"Mseh_1","mesh":1},{"name":"Mseh_2","mesh":2},{"name":"Mseh_3","mesh":3},{"name":"Mseh_4","mesh":4},{"name":"Mseh_5","mesh":5},{"name":"Mseh_6","mesh":6}],"samplers":[{"magFilter":9729,"minFilter":9729,"wrapS":10497,"wrapT":10497}],"scene":0,"buffers":[{"name":"dspÂç´Êòü.mesh","byteLength":89856,"uri":"data:application/gltf-buffer;base64,"}],"scenes":[{"nodes":[0,1,2,3,4,5,6]}],"textures":[{"name":"dspŒ¿–«_Material_6ee2a491-6aa3-11e7-43a6-330378aa646f","sampler":0,"source":0}],"images":[{"name":"wx0001.dds","uri":"data:image/ktx;base64,"}]}