{"accessors":[{"name":"Mseh_0_positions","bufferView":0,"byteOffset":0,"componentType":5126,"count":4774,"type":"VEC3","min":[-0.183139532804489,-0.039499610662460,-0.185099035501480],"max":[0.180147290229797,0.086177542805672,0.369204729795456]},{"name":"Mseh_1_normals","bufferView":1,"byteOffset":0,"componentType":5126,"count":4774,"type":"VEC3","min":[-1.000000000000000,-1.000000000000000,-1.000000000000000],"max":[1.000000000000000,1.000000000000000,1.000000000000000]},{"name":"Mseh_2_texcoords","bufferView":2,"byteOffset":0,"componentType":5126,"count":4774,"type":"VEC2","min":[-0.009028917178512,0.000633180141449],"max":[0.995576500892639,0.911907792091370]},{"name":"Mseh_3_indices","bufferView":3,"byteOffset":0,"componentType":5125,"count":15000,"type":"SCALAR","min":[0],"max":[4773]}],"asset":{"generator":"EarthView-CesiumModelTool","version":"2.0"},"bufferViews":[{"name":"bufferView__positions","buffer":0,"byteLength":57288,"byteOffset":0,"byteStride":12,"target":34962},{"name":"bufferView__normals","buffer":0,"byteLength":57288,"byteOffset":57288,"byteStride":12,"target":34962},{"name":"bufferView__texcoords","buffer":0,"byteLength":38192,"byteOffset":114576,"byteStride":8,"target":34962},{"name":"bufferView__indices","buffer":0,"byteLength":60000,"byteOffset":152768,"target":34963}],"materials":[{"name":"bf357790-a6f6-11eb-4051-0bd3735d503cJ1101","pbrMetallicRoughness":{"baseColorTexture":{"index":0},"baseColorFactor":[1.000000,1.000000,1.000000,1.000000],"metallicFactor":0,"roughnessFactor":1},"emissiveFactor":[0.000000,0.000000,0.000000],"alphaMode":"OPAQUE","doubleSided":true}],"meshes":[{"name":"Mseh_3","primitives":[{"attributes":{"POSITION":0,"NORMAL":1,"TEXCOORD_0":2},"indices":3,"material":0,"mode":4}]}],"nodes":[{"name":"J11B","children":[1],"scale":[1,1,1]},{"name":"J11B_f0","children":[2],"translation":[-0.058902453631163,-2.291755199432373,3.624127864837646]},{"name":"mesh_0","mesh":0,"scale":[39.370079215952522,39.370079215952522,39.370079215952522],"translation":[0.058902453631163,2.291755199432373,-3.624127864837647]}],"samplers":[{"magFilter":9729,"minFilter":9729,"wrapS":10497,"wrapT":10497}],"scene":0,"buffers":[{"name":"J11B.mesh","byteLength":212768,"uri":"data:application/gltf-buffer;base64,"}],"scenes":[{"nodes":[0]}],"textures":[{"name":"bf357790-a6f6-11eb-4051-0bd3735d503cJ1101","sampler":0,"source":0}],"images":[{"name":"J11B_Diffuse.jpg","uri":"data:image/ktx;base64,"}]}